<?xml version="1.0" encoding="UTF-8"?>
<svg id="Calque_1" data-name="Calque 1" xmlns="http://www.w3.org/2000/svg" viewBox="0 0 267.72 269.58">
  <defs>
    <style>
      .cls-1 {
        fill: #231f20;
      }
    </style>
  </defs>
  <g>
    <path class="cls-1" d="m134.19,74.29c34.06.15,61.23,27.46,61.07,61.39-.16,33.78-27.69,60.91-61.59,60.71-33.71-.2-60.7-27.76-60.5-61.77.19-33.26,27.72-60.47,61.02-60.32Zm.06,21.25c-21.87-.05-39.69,17.69-39.84,39.65-.15,21.91,17.73,39.85,39.74,39.88,22.04.03,39.8-17.72,39.79-39.78,0-21.92-17.76-39.7-39.69-39.75Z"/>
    <path class="cls-1" d="m197.85,86.14c-7.76.2-14.26-6.04-14.51-13.9-.24-7.71,6.1-14.38,13.85-14.57,7.91-.19,14.5,6.04,14.69,13.91.19,7.87-6.06,14.36-14.03,14.56Z"/>
  </g>
  <path class="cls-1" d="m206.46,266.92H61.41c-33.1,0-60.03-26.93-60.03-60.03V61.84C1.38,28.73,28.31,1.8,61.41,1.8h145.05c33.1,0,60.03,26.93,60.03,60.03v145.05c0,33.1-26.93,60.03-60.03,60.03ZM61.41,27.91c-18.71,0-33.93,15.22-33.93,33.93v145.05c0,18.71,15.22,33.93,33.93,33.93h145.05c18.71,0,33.93-15.22,33.93-33.93V61.84c0-18.71-15.22-33.93-33.93-33.93H61.41Z"/>
</svg>