<?xml version="1.0" encoding="UTF-8"?>
<svg id="Calque_1" data-name="Calque 1" xmlns="http://www.w3.org/2000/svg" viewBox="0 0 267.72 269.58">
  <defs>
    <style>
      .cls-1 {
        fill: #231f20;
      }
    </style>
  </defs>
  <g>
    <path class="cls-1" d="m68.5,82.37v-23.15h25.05v23.15h-25.05Zm0,107.5v-94.66h25.05v94.66h-25.05Z"/>
    <path class="cls-1" d="m205.33,189.87h-25.04v-48.31c0-10.21-.54-16.8-1.61-19.81-1.06-3.01-2.8-5.35-5.21-7.02-2.41-1.67-5.3-2.48-8.69-2.48-4.34,0-8.23,1.19-11.68,3.58-3.45,2.34-5.81,5.49-7.09,9.4-1.28,3.91-1.91,11.22-1.91,21.77v42.86h-25.05v-94.66h23.26v13.89c8.27-10.69,18.66-16.04,31.19-16.04,5.54,0,10.58,1.05,15.17,3.01,4.57,2,8.03,4.53,10.38,7.64,2.35,3.05,3.97,6.59,4.89,10.5.93,3.87,1.39,9.5,1.39,16.85v58.81Z"/>
  </g>
  <path class="cls-1" d="m206.27,266.92H61.21c-33.1,0-60.03-26.93-60.03-60.03V61.84C1.18,28.73,28.11,1.8,61.21,1.8h145.05c33.1,0,60.03,26.93,60.03,60.03v145.05c0,33.1-26.93,60.03-60.03,60.03ZM61.21,27.91c-18.71,0-33.93,15.22-33.93,33.93v145.05c0,18.71,15.22,33.93,33.93,33.93h145.05c18.71,0,33.93-15.22,33.93-33.93V61.84c0-18.71-15.22-33.93-33.93-33.93H61.21Z"/>
</svg>