<?xml version="1.0" encoding="UTF-8"?>
<svg id="Calque_1" data-name="Calque 1" xmlns="http://www.w3.org/2000/svg" viewBox="0 0 267.72 269.58">
  <defs>
    <style>
      .cls-1 {
        fill: #231f20;
      }
    </style>
  </defs>
  <path class="cls-1" d="m182.85,189.87c-23.78,0-41.04-17.25-41.04-41.01s17.26-40.85,41.04-40.85,40.88,17.18,40.88,40.85v3.16h-59.49l.06.64c1.16,11.7,8.96,20.2,18.55,20.2,8.99,0,15.15-5.58,17.35-15.71.07-.32.34-.54.67-.54h21.31c.21,0,.4.09.54.26.13.17.19.38.14.58-3.03,14.8-12.43,32.44-40.02,32.44Zm0-64.84c-8.8,0-15.79,5.88-17.39,14.63l-.13.69h34.85l-.15-.71c-1.89-8.88-8.63-14.61-17.19-14.61ZM50.48,189.87c-.38,0-.69-.31-.69-.69v-107.62c0-.38.31-.69.69-.69h53.84c15.1,0,27.38,12.35,27.38,27.53,0,8.79-4.3,17.12-11.51,22.29l-.85.6.96.41c10.28,4.37,16.92,14.3,16.92,25.29,0,18.13-14.76,32.88-32.9,32.88h-53.84Zm21.71-22.4h29.28c3.59,0,7.08-1.48,9.59-4.07,2.43-2.51,3.7-5.76,3.59-9.16-.41-12.48-13.28-13.11-15.86-13.11h-26.6v26.34Zm0-43.22h26.6c3.16,0,6.14-1.42,8.15-3.9,2-2.46,2.78-5.67,2.12-8.8-1-4.8-5.54-8.28-10.79-8.28h-26.09v20.98Zm86.57-20.98c-.38,0-.69-.31-.69-.7v-15.64c0-.38.31-.69.69-.69h48.01c.38,0,.69.31.69.69v15.64c0,.38-.31.7-.69.7h-48.01Z"/>
  <path class="cls-1" d="m205.65,266.92H60.6c-33.1,0-60.03-26.93-60.03-60.03V61.84C.57,28.73,27.5,1.8,60.6,1.8h145.05c33.1,0,60.03,26.93,60.03,60.03v145.05c0,33.1-26.93,60.03-60.03,60.03ZM60.6,27.91c-18.71,0-33.93,15.22-33.93,33.93v145.05c0,18.71,15.22,33.93,33.93,33.93h145.05c18.71,0,33.93-15.22,33.93-33.93V61.84c0-18.71-15.22-33.93-33.93-33.93H60.6Z"/>
</svg>