<?xml version="1.0" encoding="UTF-8"?>
<svg className="svg--responsive2" xmlns="http://www.w3.org/2000/svg" viewBox="0 0 796 112">
  <defs>
    <style>
      .cls-1 {
        fill: #221f20;
      }
    </style>
  </defs>
  <path class="cls-1" d="m46.96,38.01c-8.9,0-14.2,2.11-19.83,8.18v-5.76c0-.53-.43-.96-.96-.96H3.55c-.53,0-.96.43-.96.96v66.01c0,.53.43.96.96.96h22.62c.53,0,.96-.43.96-.96v-35.41c0-8,3.98-12.59,10.92-12.59,3.64,0,6.93,1.83,8.2,4.58,1.16,2.26,1.31,3.39,1.31,10.05v33.37c0,.53.43.96.96.96h22.62c.53,0,.96-.43.96-.96v-41.97c0-9.33-1.57-14.1-6.2-18.88-4.74-5.04-11.11-7.59-18.94-7.59Z"/>
  <rect class="cls-1" x="85.57" y="39.47" width="24.54" height="67.93" rx=".96" ry=".96"/>
  <path class="cls-1" d="m97.84,1c-7.54,0-13.68,6.31-13.68,14.08s6.14,14.08,13.68,14.08,13.69-6.31,13.69-14.08-6.14-14.08-13.69-14.08Z"/>
  <path class="cls-1" d="m173.36,41.19c-5.24-2.7-9.56-3.75-15.43-3.75-21.36,0-36.87,15.36-36.87,36.51,0,19.99,15.76,35.64,35.88,35.64,5.85,0,10.44-1.04,16.37-3.73.34-.16.56-.5.56-.87v-19.82c0-.37-.21-.7-.54-.86-.33-.16-.72-.12-1.01.11-3.59,2.84-7.04,4.17-10.86,4.17-8.9,0-14.88-6.12-14.88-15.22,0-8.43,6.27-14.78,14.59-14.78,3.92,0,6.96,1.1,11.19,4.06.29.2.68.23.99.06.32-.17.52-.49.52-.85v-19.82c0-.36-.2-.69-.52-.85Z"/>
  <path class="cls-1" d="m221.83,37c-23.29,0-39.56,14.96-39.56,36.37s16.27,36.52,39.56,36.52,39.42-15.02,39.42-36.52-16.58-36.37-39.42-36.37Zm13.61,36.23c0,7.83-6.1,14.2-13.61,14.2s-13.75-6.37-13.75-14.2,6.04-14.2,13.75-14.2,13.61,6.37,13.61,14.2Z"/>
  <path class="cls-1" d="m322.08,41.19c-5.24-2.7-9.56-3.75-15.43-3.75-21.36,0-36.87,15.36-36.87,36.51,0,19.99,15.76,35.64,35.88,35.64,5.85,0,10.44-1.04,16.37-3.73.34-.16.56-.5.56-.87v-19.82c0-.37-.21-.7-.54-.86-.33-.16-.73-.12-1.01.11-3.59,2.84-7.04,4.17-10.86,4.17-8.9,0-14.88-6.12-14.88-15.22,0-8.43,6.27-14.78,14.59-14.78,3.92,0,6.96,1.1,11.19,4.06.29.2.68.23.99.06.32-.17.52-.49.52-.85v-19.82c0-.36-.2-.69-.52-.85Z"/>
  <path class="cls-1" d="m406.75,39.47h-22.62c-.53,0-.96.43-.96.96v4.11c-5.38-5-11.32-7.26-18.98-7.26-18.93,0-33.2,15.51-33.2,36.08s14.64,36.23,33.34,36.23c7.97,0,14.02-2.48,18.83-7.77v4.62c0,.53.43.96.96.96h22.62c.53,0,.96-.43.96-.96V40.43c0-.53-.43-.96-.96-.96Zm-22.87,34.04c0,7.75-6.1,14.05-13.6,14.05s-13.75-6.37-13.75-14.2,6.17-14.05,13.75-14.05,13.6,6.37,13.6,14.2Z"/>
  <path class="cls-1" d="m470.29,38.75c-2.29-.15-2.88-.15-4.45-.15-9.04,0-15.06,2.8-20.11,9.53v-7.69c0-.53-.43-.96-.96-.96h-22.62c-.53,0-.96.43-.96.96v66.01c0,.53.43.96.96.96h22.62c.53,0,.96-.43.96-.96v-28.27c0-11.81,4.87-17.54,14.88-17.54,3.82,0,5.79.48,9.18,2.22.3.15.65.14.94-.03.29-.17.46-.48.46-.82v-22.29c0-.5-.39-.92-.9-.96Z"/>
  <path class="cls-1" d="m567.07,38.31c-9.09,0-16.35,3.89-21.61,11.56-5.11-7.88-11.9-11.41-21.79-11.41-7.89,0-13.58,2.24-19.69,7.88v-5.9c0-.53-.43-.96-.96-.96h-22.62c-.53,0-.96.43-.96.96v66.01c0,.53.43.96.96.96h22.62c.53,0,.96-.43.96-.96v-32.64c0-5.69.4-8.61,1.47-10.82,1.25-2.7,4.86-4.98,7.9-4.98,3.44,0,6.88,2.42,8.01,5.63.78,2.14.93,3.17.93,10.17v32.64c0,.53.43.96.96.96h22.62c.53,0,.96-.43.96-.96v-32.64c0-10.2,3.29-15.36,9.78-15.36,3.27,0,6.06,1.96,7.45,5.21.91,2.41,1.07,3.38,1.07,10.16v32.64c0,.53.43.96.96.96h22.62c.53,0,.96-.43.96-.96v-42.84c0-16.31-8.02-25.3-22.59-25.3Z"/>
  <path class="cls-1" d="m615.69,1c-7.54,0-13.68,6.31-13.68,14.08s6.14,14.08,13.68,14.08,13.69-6.31,13.69-14.08-6.14-14.08-13.69-14.08Z"/>
  <rect class="cls-1" x="603.42" y="39.47" width="24.54" height="67.93" rx=".96" ry=".96"/>
  <path class="cls-1" d="m685.81,38.01c-8.9,0-14.2,2.11-19.83,8.18v-5.76c0-.53-.43-.96-.96-.96h-22.62c-.53,0-.96.43-.96.96v66.01c0,.53.43.96.96.96h22.62c.53,0,.96-.43.96-.96v-35.41c0-8,3.98-12.59,10.92-12.59,3.64,0,6.93,1.83,8.2,4.58,1.16,2.26,1.31,3.39,1.31,10.05v33.37c0,.53.43.96.96.96h22.62c.53,0,.96-.43.96-.96v-41.97c0-9.33-1.57-14.1-6.2-18.88-4.74-5.04-11.11-7.59-18.94-7.59Z"/>
  <path class="cls-1" d="m757.63,37.58c-21.8,0-35.88,14.33-35.88,36.52s14.97,35.93,38.14,35.93c17.41,0,28.93-8.1,33.3-23.42.08-.29.02-.6-.16-.84-.18-.24-.46-.38-.77-.38h-21.78c-.33,0-.64.17-.81.45-2.72,4.35-5.26,5.81-10.07,5.81-8.46,0-12.61-4.12-13.01-12.94h46.66c.53,0,.96-.43.96-.96v-3.06c0-23.23-13.68-37.1-36.59-37.1Zm-10.26,25.65c1.47-5.71,5.58-8.72,11.96-8.72,5.52,0,9.88,3.31,11.61,8.72h-23.56Z"/>
</svg>