<?xml version="1.0" encoding="UTF-8"?>
<svg className="svg--responsive" xmlns="http://www.w3.org/2000/svg" viewBox="0 0 539 93.5">
  <defs>
    <style>
      .cls-1 {
        fill: #221f20;
      }
    </style>
  </defs>
  <path class="cls-1" d="m45.73,21.9h-11.91V3.04c0-.53-.43-.96-.96-.96H10.23c-.53,0-.96.43-.96.96v18.86H2.74c-.53,0-.96.43-.96.96v19.38c0,.53.43.96.96.96h6.53v45.67c0,.53.43.96.96.96h22.62c.53,0,.96-.43.96-.96v-45.67h11.91c.53,0,.96-.43.96-.96v-19.38c0-.53-.43-.96-.96-.96Z"/>
  <path class="cls-1" d="m102.34,21.18c-2.29-.15-2.88-.15-4.45-.15-9.04,0-15.07,2.8-20.11,9.53v-7.69c0-.53-.43-.96-.96-.96h-22.62c-.53,0-.96.43-.96.96v66.01c0,.53.43.96.96.96h22.62c.53,0,.96-.43.96-.96v-28.27c0-11.8,4.87-17.54,14.88-17.54,3.82,0,5.79.48,9.18,2.22.29.15.65.14.94-.03.29-.17.46-.48.46-.82v-22.29c0-.5-.39-.92-.9-.96Z"/>
  <path class="cls-1" d="m185.42,21.9h-22.62c-.53,0-.96.43-.96.96v4.11c-5.38-5-11.32-7.26-18.98-7.26-18.93,0-33.2,15.51-33.2,36.08s14.64,36.23,33.34,36.23c7.97,0,14.03-2.48,18.84-7.77v4.62c0,.53.43.96.96.96h22.62c.53,0,.96-.43.96-.96V22.86c0-.53-.43-.96-.96-.96Zm-22.88,34.04c0,7.75-6.1,14.05-13.6,14.05s-13.75-6.37-13.75-14.2,6.17-14.05,13.75-14.05,13.6,6.37,13.6,14.2Z"/>
  <path class="cls-1" d="m275.9,21.9h-25.31c-.37,0-.71.22-.87.56l-14.68,31.9-14.4-31.89c-.15-.34-.5-.56-.87-.56h-25.45c-.33,0-.64.17-.82.46-.17.28-.19.64-.04.93l33.08,66.01c.16.32.49.53.86.53h15.13c.36,0,.69-.2.86-.53l33.37-66.01c.15-.3.14-.65-.04-.94-.17-.28-.48-.46-.82-.46Z"/>
  <path class="cls-1" d="m352.81,21.9h-22.62c-.53,0-.96.43-.96.96v4.11c-5.38-5-11.32-7.26-18.97-7.26-18.93,0-33.2,15.51-33.2,36.08s14.64,36.23,33.34,36.23c7.97,0,14.02-2.48,18.83-7.77v4.62c0,.53.43.96.96.96h22.62c.53,0,.96-.43.96-.96V22.86c0-.53-.43-.96-.96-.96Zm-22.87,34.04c0,7.75-6.1,14.05-13.6,14.05s-13.75-6.37-13.75-14.2,6.17-14.05,13.75-14.05,13.6,6.37,13.6,14.2Z"/>
  <path class="cls-1" d="m436.5,21.9h-22.62c-.53,0-.96.43-.96.96v37.45c0,7.5-3.43,11.14-10.49,11.14s-10.64-3.64-10.64-11.14V22.86c0-.53-.43-.96-.96-.96h-22.62c-.53,0-.96.43-.96.96v41.97c0,18.17,12.16,27.78,35.18,27.78s35.03-9.86,35.03-27.78V22.86c0-.53-.43-.96-.96-.96Z"/>
  <path class="cls-1" d="m537.6,88.24l-31.53-35.21,26.02-29.53c.25-.28.31-.69.16-1.03-.16-.34-.5-.56-.87-.56h-29.41c-.28,0-.55.13-.74.34l-10.57,12.66-10.3-12.65c-.18-.22-.46-.35-.74-.35h-29.55c-.38,0-.72.22-.87.56-.16.34-.1.74.14,1.03l25.47,29.53-31.39,35.22c-.25.28-.31.69-.16,1.03.15.34.5.57.87.57h29.97c.28,0,.55-.13.74-.34l15.67-18.79,15.67,18.79c.18.22.45.34.74.34h29.97c.38,0,.72-.22.88-.57.15-.34.09-.75-.16-1.03Z"/>
</svg>